# xmcd CD database file
#
# Track frame offsets:
#	150
#	12222
#	24171
#	36261
#	48378
#	64768
#	81097
#	92597
#	105412
#	121713
#	134587
#
# Disc length: 1943 seconds
#
# Revision: 0
# Processed by: cddbd v1.5.2PL0 Copyright (c) Steve Scherf et al.
# Submitted via: CDex 1.51
#
DISCID=7f07950b
DTITLE=Bleaker Street Cowboys - New Songs for the Old Country Soul
DYEAR=2012
DGENRE=Country
TTITLE0=Bumpy Ridin
TTITLE1=Save Me
TTITLE2=Don't Blame Me
TTITLE3=Giddy Up
TTITLE4=I'm Just A Man
TTITLE5=Truck Drivin' Cowgirl
TTITLE6=I'm Wondering
TTITLE7=Broken Down
TTITLE8=The Rest of My Life
TTITLE9=26 Miles
TTITLE10=Oh My My
EXTD=YEAR: 2012
EXTT0=
EXTT1=
EXTT2=
EXTT3=
EXTT4=
EXTT5=
EXTT6=
EXTT7=
EXTT8=
EXTT9=
EXTT10=
PLAYORDER=
